
<svg class="mt" width="47px" height="27px" viewBox="0 0 47 27" version="1.1" xmlns="http://www.w3.org/2000/svg" xmlns:xlink="http://www.w3.org/1999/xlink">
    <g id="Page-1" stroke="none" stroke-width="1" fill="none" fill-rule="evenodd">
        <g id="CV" transform="translate(-48.000000, -67.000000)" fill="#00AEEF">
            <path d="M54.7142857,67 L61.4285714,67 L61.4285714,73.75 L54.7142857,73.75 L54.7142857,67 Z M88.2857143,80.5 L95,80.5 L95,87.25 L88.2857143,87.25 L88.2857143,80.5 Z M88.2857143,67 L95,67 L95,73.75 L88.2857143,73.75 L88.2857143,67 Z M81.5714286,87.25 L88.2857143,87.25 L88.2857143,94 L81.5714286,94 L81.5714286,87.25 Z M68.1428571,67 L81.5714286,67 L81.5714286,73.75 L68.1428571,73.75 L68.1428571,67 Z M54.7142857,87.25 L61.4285714,87.25 L61.4285714,94 L54.7142857,94 L54.7142857,87.25 Z M48,73.75 L54.7142857,73.75 L54.7142857,94 L48,94 L48,73.75 Z M61.4285714,73.75 L68.1428571,73.75 L68.1428571,94 L61.4285714,94 L61.4285714,73.75 Z M74.8571429,73.75 L81.5714286,73.75 L81.5714286,94 L74.8571429,94 L74.8571429,73.75 Z" id="Combined-Shape"></path>
        </g>
    </g>
</svg>