<svg width="131px" height="38px" viewBox="0 0 131 38" version="1.1" xmlns="http://www.w3.org/2000/svg" xmlns:xlink="http://www.w3.org/1999/xlink">

    <g id="Page-1" stroke="none" stroke-width="1" fill="none" fill-rule="evenodd">
        <g id="Artboard" transform="translate(-204.000000, -124.000000)" >
            <g id="specs" transform="translate(204.000000, 124.000000)" fill="#9012FE">
                <path d="M14.3531958,5.25420333 C14.3531958,5.25420333 22.6931945,15.6925656 23.7075858,17.5497388 C24.7219772,19.406912 23.9536606,22.8309759 23.9536606,22.8309759 C23.9536606,22.8309759 22.6133285,25.8950354 21.9274231,24.6823678 C16.845933,18.5825922 12.2320752,8.76048876 12.2320752,8.76048876 L14.3531958,5.25420333 Z" id="Path"></path>
                <path d="M109.109862,5.25420333 C109.109862,5.25420333 117.449861,15.6925656 118.464252,17.5497388 C119.478644,19.406912 118.710327,22.8309759 118.710327,22.8309759 C118.710327,22.8309759 117.369995,25.8950354 116.68409,24.6823678 C111.6026,18.5825922 106.988742,8.76048876 106.988742,8.76048876 L109.109862,5.25420333 Z" id="Path" transform="translate(112.988921, 15.110258) scale(-1, 1) translate(-112.988921, -15.110258) "></path>
                <path d="M65.6202398,6.03137211 L73.4791338,6.03137211 C73.4791338,6.03137211 85.9063325,0.573220996 97.9327062,0.123776126 C113.392583,-0.453984237 130.570555,2.4306641 130.570555,2.4306641 C130.570555,2.4306641 131.206792,5.85859852 130.570555,9.626294 C130.570555,9.626294 127.101528,9.626294 121.946814,19.1292269 C119.445362,24.2975032 122.226554,36.0213436 97.9949654,37.2200627 C73.011151,36.678437 74.7829772,22.7548705 71.4248221,15.1634062 C73.011151,10.6875289 69.7318859,9.62629363 69.7318859,9.62629363 L65.6202398,9.62629363 L61.5085937,9.62629363 C61.5085937,9.62629363 58.2293287,10.6875289 59.8156576,15.1634062 C56.4575025,22.7548705 58.2293287,36.678437 33.2455143,37.2200627 C9.01392578,36.0213436 11.7951174,24.2975032 9.2936654,19.1292269 C4.13895165,9.626294 0.669925124,9.626294 0.669925124,9.626294 C0.0336881557,5.85859852 0.66992513,2.4306641 0.66992513,2.4306641 C0.66992513,2.4306641 17.8478971,-0.453984237 33.3077734,0.123776126 C45.3341472,0.573220996 57.7613459,6.03137211 57.7613459,6.03137211 L65.6202398,6.03137211 Z M33.9839765,2.89246252 C13.4379913,2.22575161 11.6092901,5.47540726 11.8114393,16.1574435 C14.9993138,31.7752566 21.1204179,33.5566834 33.2313304,34.7206785 C43.9426362,35.210466 54.0060358,29.9995346 55.5974648,18.1596125 C56.8050441,6.97703392 49.4040218,4.24624808 33.9839765,2.89246252 Z M97.2920223,2.89246252 C117.838008,2.22575161 119.666709,5.47540726 119.464559,16.1574435 C116.276685,31.7752566 110.155581,33.5566834 98.0446685,34.7206785 C87.3333627,35.210466 77.269963,29.9995346 75.678534,18.1596125 C74.4709547,6.97703392 81.871977,4.24624808 97.2920223,2.89246252 Z" id="Combined-Shape"></path>
            </g>
        </g>
    </g>
</svg>